<mxfile host="app.diagrams.net" modified="2023-10-10T04:54:51.009Z" agent="Mozilla/5.0 (Windows NT 10.0; Win64; x64) AppleWebKit/537.36 (KHTML, like Gecko) Chrome/117.0.0.0 Safari/537.36 Edg/117.0.2045.60" etag="Ipa-W9NdNbG6AQXOeeoX" version="21.7.2" type="google">
  <diagram name="PÃ¡gina-1" id="iQKY8tmw0qfSNVr5BxeC">
    <mxGraphModel dx="1282" dy="2221" grid="1" gridSize="10" guides="1" tooltips="1" connect="1" arrows="1" fold="1" page="1" pageScale="1" pageWidth="1169" pageHeight="827" math="0" shadow="0">
      <root>
        <mxCell id="0" />
        <mxCell id="1" parent="0" />
        <mxCell id="wyRLhXrzS5jzYZ9b7CfC-13" value="jet" style="swimlane;fontStyle=1;align=center;verticalAlign=top;childLayout=stackLayout;horizontal=1;startSize=26;horizontalStack=0;resizeParent=1;resizeParentMax=0;resizeLast=0;collapsible=1;marginBottom=0;whiteSpace=wrap;html=1;" parent="1" vertex="1">
          <mxGeometry x="140" y="-280" width="160" height="280" as="geometry" />
        </mxCell>
        <mxCell id="wyRLhXrzS5jzYZ9b7CfC-14" value="string owner&lt;br&gt;vec&amp;lt;strings&amp;gt; service list&lt;br&gt;vec &amp;lt;string&amp;gt; destinies&amp;nbsp;&lt;br&gt;landing overide()&lt;br&gt;taking overide()" style="text;strokeColor=none;fillColor=none;align=left;verticalAlign=top;spacingLeft=4;spacingRight=4;overflow=hidden;rotatable=0;points=[[0,0.5],[1,0.5]];portConstraint=eastwest;whiteSpace=wrap;html=1;" parent="wyRLhXrzS5jzYZ9b7CfC-13" vertex="1">
          <mxGeometry y="26" width="160" height="124" as="geometry" />
        </mxCell>
        <mxCell id="wyRLhXrzS5jzYZ9b7CfC-15" value="" style="line;strokeWidth=1;fillColor=none;align=left;verticalAlign=middle;spacingTop=-1;spacingLeft=3;spacingRight=3;rotatable=0;labelPosition=right;points=[];portConstraint=eastwest;strokeColor=inherit;" parent="wyRLhXrzS5jzYZ9b7CfC-13" vertex="1">
          <mxGeometry y="150" width="160" height="8" as="geometry" />
        </mxCell>
        <mxCell id="wyRLhXrzS5jzYZ9b7CfC-16" value="getDestiny()&lt;br&gt;set_Destination(string destination)&lt;br&gt;jet()&lt;br&gt;~jet()&lt;br&gt;landing overide()&lt;br&gt;taking off overide()" style="text;strokeColor=none;fillColor=none;align=left;verticalAlign=top;spacingLeft=4;spacingRight=4;overflow=hidden;rotatable=0;points=[[0,0.5],[1,0.5]];portConstraint=eastwest;whiteSpace=wrap;html=1;" parent="wyRLhXrzS5jzYZ9b7CfC-13" vertex="1">
          <mxGeometry y="158" width="160" height="122" as="geometry" />
        </mxCell>
        <mxCell id="aiJOYpLpMtuklq5Sg0DL-8" style="edgeStyle=orthogonalEdgeStyle;rounded=0;orthogonalLoop=1;jettySize=auto;html=1;entryX=0;entryY=0.5;entryDx=0;entryDy=0;endArrow=classicThin;endFill=0;" parent="1" source="wyRLhXrzS5jzYZ9b7CfC-17" target="wyRLhXrzS5jzYZ9b7CfC-22" edge="1">
          <mxGeometry relative="1" as="geometry">
            <mxPoint x="639.9999999999998" y="-26.666618795955884" as="targetPoint" />
            <Array as="points">
              <mxPoint x="580" y="160" />
              <mxPoint x="640" y="160" />
              <mxPoint x="640" y="110" />
              <mxPoint x="660" y="110" />
              <mxPoint x="660" y="111" />
            </Array>
          </mxGeometry>
        </mxCell>
        <mxCell id="wyRLhXrzS5jzYZ9b7CfC-17" value="passenger" style="swimlane;fontStyle=1;align=center;verticalAlign=top;childLayout=stackLayout;horizontal=1;startSize=26;horizontalStack=0;resizeParent=1;resizeParentMax=0;resizeLast=0;collapsible=1;marginBottom=0;whiteSpace=wrap;html=1;" parent="1" vertex="1">
          <mxGeometry x="290" y="340" width="300" height="260" as="geometry" />
        </mxCell>
        <mxCell id="wyRLhXrzS5jzYZ9b7CfC-18" value="int num_bags&lt;br&gt;sring medical _information&lt;br&gt;string nationality" style="text;strokeColor=none;fillColor=none;align=left;verticalAlign=top;spacingLeft=4;spacingRight=4;overflow=hidden;rotatable=0;points=[[0,0.5],[1,0.5]];portConstraint=eastwest;whiteSpace=wrap;html=1;" parent="wyRLhXrzS5jzYZ9b7CfC-17" vertex="1">
          <mxGeometry y="26" width="300" height="64" as="geometry" />
        </mxCell>
        <mxCell id="wyRLhXrzS5jzYZ9b7CfC-19" value="" style="line;strokeWidth=1;fillColor=none;align=left;verticalAlign=middle;spacingTop=-1;spacingLeft=3;spacingRight=3;rotatable=0;labelPosition=right;points=[];portConstraint=eastwest;strokeColor=inherit;" parent="wyRLhXrzS5jzYZ9b7CfC-17" vertex="1">
          <mxGeometry y="90" width="300" height="8" as="geometry" />
        </mxCell>
        <mxCell id="wyRLhXrzS5jzYZ9b7CfC-20" value="&lt;pre style=&quot;border-color: var(--border-color); font-family: &amp;quot;JetBrains Mono&amp;quot;, monospace;&quot;&gt;Passenger();&lt;br style=&quot;border-color: var(--border-color);&quot;&gt;(&lt;span style=&quot;border-color: var(--border-color);&quot;&gt;&lt;/span&gt;&lt;font style=&quot;border-color: var(--border-color);&quot;&gt;constrcutor con paramentros)&lt;/font&gt;&lt;font style=&quot;border-color: var(--border-color);&quot;&gt;&lt;br style=&quot;border-color: var(--border-color);&quot;&gt;&lt;/font&gt;&lt;span style=&quot;border-color: var(--border-color);&quot;&gt;int &lt;/span&gt;&lt;span style=&quot;border-color: var(--border-color);&quot;&gt;getNumBags&lt;/span&gt;&lt;font style=&quot;border-color: var(--border-color);&quot;&gt;();&lt;span style=&quot;border-color: var(--border-color);&quot;&gt;&lt;br style=&quot;border-color: var(--border-color);&quot;&gt;&lt;/span&gt;&lt;/font&gt;&lt;span style=&quot;border-color: var(--border-color);&quot;&gt;string &lt;/span&gt;&lt;span style=&quot;border-color: var(--border-color);&quot;&gt;getMedicalInfo&lt;/span&gt;&lt;font style=&quot;border-color: var(--border-color);&quot;&gt;();&lt;span style=&quot;border-color: var(--border-color);&quot;&gt;&lt;br style=&quot;border-color: var(--border-color);&quot;&gt;&lt;/span&gt;&lt;/font&gt;&lt;span style=&quot;border-color: var(--border-color);&quot;&gt;string &lt;/span&gt;&lt;span style=&quot;border-color: var(--border-color);&quot;&gt;getNationality&lt;/span&gt;&lt;font style=&quot;border-color: var(--border-color);&quot;&gt;();&lt;span style=&quot;border-color: var(--border-color);&quot;&gt;&lt;br style=&quot;border-color: var(--border-color);&quot;&gt;&lt;/span&gt;&lt;/font&gt;&lt;span style=&quot;border-color: var(--border-color);&quot;&gt;void &lt;/span&gt;&lt;span style=&quot;border-color: var(--border-color);&quot;&gt;setNumBags&lt;/span&gt;&lt;font style=&quot;border-color: var(--border-color);&quot;&gt;(&lt;/font&gt;&lt;span style=&quot;border-color: var(--border-color);&quot;&gt;int &lt;/span&gt;&lt;font style=&quot;border-color: var(--border-color);&quot;&gt;numBags);&lt;span style=&quot;border-color: var(--border-color);&quot;&gt;&lt;br style=&quot;border-color: var(--border-color);&quot;&gt;&lt;/span&gt;&lt;/font&gt;&lt;span style=&quot;border-color: var(--border-color);&quot;&gt;void &lt;/span&gt;&lt;span style=&quot;border-color: var(--border-color);&quot;&gt;setMedicalInfo&lt;/span&gt;&lt;font style=&quot;border-color: var(--border-color);&quot;&gt;(&lt;/font&gt;&lt;span style=&quot;border-color: var(--border-color);&quot;&gt;string &lt;/span&gt;&lt;font style=&quot;border-color: var(--border-color);&quot;&gt;medical_info);&lt;span style=&quot;border-color: var(--border-color);&quot;&gt;&lt;br style=&quot;border-color: var(--border-color);&quot;&gt;&lt;/span&gt;&lt;/font&gt;&lt;span style=&quot;border-color: var(--border-color);&quot;&gt;void &lt;/span&gt;&lt;span style=&quot;border-color: var(--border-color);&quot;&gt;setNacionality&lt;/span&gt;&lt;font style=&quot;border-color: var(--border-color);&quot;&gt;(&lt;/font&gt;&lt;span style=&quot;border-color: var(--border-color);&quot;&gt;string &lt;/span&gt;&lt;font style=&quot;border-color: var(--border-color);&quot;&gt;nacionality);&lt;span style=&quot;border-color: var(--border-color);&quot;&gt;&lt;br style=&quot;border-color: var(--border-color);&quot;&gt;&lt;/span&gt;&lt;/font&gt;&lt;span style=&quot;border-color: var(--border-color);&quot;&gt;void &lt;/span&gt;&lt;span style=&quot;border-color: var(--border-color);&quot;&gt;printInfo&lt;/span&gt;&lt;font style=&quot;border-color: var(--border-color);&quot;&gt;();&lt;/font&gt;&lt;/pre&gt;" style="text;strokeColor=none;fillColor=none;align=left;verticalAlign=top;spacingLeft=4;spacingRight=4;overflow=hidden;rotatable=0;points=[[0,0.5],[1,0.5]];portConstraint=eastwest;whiteSpace=wrap;html=1;" parent="wyRLhXrzS5jzYZ9b7CfC-17" vertex="1">
          <mxGeometry y="98" width="300" height="162" as="geometry" />
        </mxCell>
        <mxCell id="wyRLhXrzS5jzYZ9b7CfC-21" value="people" style="swimlane;fontStyle=1;align=center;verticalAlign=top;childLayout=stackLayout;horizontal=1;startSize=26;horizontalStack=0;resizeParent=1;resizeParentMax=0;resizeLast=0;collapsible=1;marginBottom=0;whiteSpace=wrap;html=1;" parent="1" vertex="1">
          <mxGeometry x="670" y="20" width="160" height="346" as="geometry" />
        </mxCell>
        <mxCell id="wyRLhXrzS5jzYZ9b7CfC-22" value="sting nationality&amp;nbsp;&lt;br&gt;stirng name&lt;br&gt;int id&amp;nbsp;&lt;br&gt;int number&lt;br&gt;string birth&amp;nbsp;&lt;br&gt;string gender&amp;nbsp;&lt;br&gt;string email" style="text;strokeColor=none;fillColor=none;align=left;verticalAlign=top;spacingLeft=4;spacingRight=4;overflow=hidden;rotatable=0;points=[[0,0.5],[1,0.5]];portConstraint=eastwest;whiteSpace=wrap;html=1;" parent="wyRLhXrzS5jzYZ9b7CfC-21" vertex="1">
          <mxGeometry y="26" width="160" height="130" as="geometry" />
        </mxCell>
        <mxCell id="wyRLhXrzS5jzYZ9b7CfC-23" value="" style="line;strokeWidth=1;fillColor=none;align=left;verticalAlign=middle;spacingTop=-1;spacingLeft=3;spacingRight=3;rotatable=0;labelPosition=right;points=[];portConstraint=eastwest;strokeColor=inherit;" parent="wyRLhXrzS5jzYZ9b7CfC-21" vertex="1">
          <mxGeometry y="156" width="160" height="8" as="geometry" />
        </mxCell>
        <mxCell id="wyRLhXrzS5jzYZ9b7CfC-24" value="get_name()&lt;br&gt;get_id&lt;br&gt;get_number&lt;br&gt;get_birth&lt;br&gt;get_gender&lt;br&gt;get_email&lt;br&gt;set_name(string name)&lt;br&gt;set_id(int id)" style="text;strokeColor=none;fillColor=none;align=left;verticalAlign=top;spacingLeft=4;spacingRight=4;overflow=hidden;rotatable=0;points=[[0,0.5],[1,0.5]];portConstraint=eastwest;whiteSpace=wrap;html=1;" parent="wyRLhXrzS5jzYZ9b7CfC-21" vertex="1">
          <mxGeometry y="164" width="160" height="182" as="geometry" />
        </mxCell>
        <mxCell id="rjxTFGt6AbUow81dh46X-27" style="edgeStyle=orthogonalEdgeStyle;rounded=0;orthogonalLoop=1;jettySize=auto;html=1;entryX=1.014;entryY=0.545;entryDx=0;entryDy=0;entryPerimeter=0;endSize=11;endArrow=diamondThin;endFill=0;" parent="1" source="T3-S1mTcQeIRpF71mz3H-9" target="T3-S1mTcQeIRpF71mz3H-8" edge="1">
          <mxGeometry relative="1" as="geometry">
            <mxPoint x="1170" y="-910" as="targetPoint" />
          </mxGeometry>
        </mxCell>
        <mxCell id="T3-S1mTcQeIRpF71mz3H-9" value="Flight" style="swimlane;fontStyle=1;align=center;verticalAlign=top;childLayout=stackLayout;horizontal=1;startSize=26;horizontalStack=0;resizeParent=1;resizeParentMax=0;resizeLast=0;collapsible=1;marginBottom=0;whiteSpace=wrap;html=1;" parent="1" vertex="1">
          <mxGeometry x="1100" y="-90" width="160" height="508" as="geometry" />
        </mxCell>
        <mxCell id="T3-S1mTcQeIRpF71mz3H-10" value="int numberFlight&lt;br&gt;string Destiny&lt;br&gt;int numberPassengers&lt;br&gt;string departureDate()&lt;br&gt;string arrivalDate()&lt;br&gt;DepartureGate&lt;br&gt;int seats&lt;br&gt;string Origen&lt;br&gt;vec&amp;lt; passenger&amp;gt; passengers&lt;br&gt;bool asignado;&lt;br&gt;vec &amp;lt; crewmate&amp;gt; crewmates;&lt;br&gt;bool gateAsigned" style="text;strokeColor=none;fillColor=none;align=left;verticalAlign=top;spacingLeft=4;spacingRight=4;overflow=hidden;rotatable=0;points=[[0,0.5],[1,0.5]];portConstraint=eastwest;whiteSpace=wrap;html=1;" parent="T3-S1mTcQeIRpF71mz3H-9" vertex="1">
          <mxGeometry y="26" width="160" height="214" as="geometry" />
        </mxCell>
        <mxCell id="rjxTFGt6AbUow81dh46X-7" value="" style="line;strokeWidth=1;fillColor=none;align=left;verticalAlign=middle;spacingTop=-1;spacingLeft=3;spacingRight=3;rotatable=0;labelPosition=right;points=[];portConstraint=eastwest;strokeColor=inherit;" parent="T3-S1mTcQeIRpF71mz3H-9" vertex="1">
          <mxGeometry y="240" width="160" height="8" as="geometry" />
        </mxCell>
        <mxCell id="T3-S1mTcQeIRpF71mz3H-12" value="&lt;pre style=&quot;border-color: var(--border-color); font-family: &amp;quot;JetBrains Mono&amp;quot;, monospace; font-size: 8px;&quot;&gt;Flight();&lt;br style=&quot;border-color: var(--border-color); font-size: 8px;&quot;&gt;&lt;span style=&quot;border-color: var(--border-color); font-size: 8px;&quot;&gt;Flight&lt;/span&gt;(&lt;span style=&quot;border-color: var(--border-color); font-size: 8px;&quot;&gt;int &lt;/span&gt;numberFlight, &lt;span style=&quot;border-color: var(--border-color); font-size: 8px;&quot;&gt;string &lt;/span&gt;Destiny, &lt;span style=&quot;border-color: var(--border-color); font-size: 8px;&quot;&gt;int &lt;/span&gt;numberPassengers, &lt;span style=&quot;border-color: var(--border-color); font-size: 8px;&quot;&gt;string &lt;/span&gt;departureDate, &lt;span style=&quot;border-color: var(--border-color); font-size: 8px;&quot;&gt;string &lt;/span&gt;arrivalDate,string &lt;span style=&quot;background-color: initial; white-space: normal; font-size: 8px;&quot;&gt;Origen,&amp;nbsp;&lt;/span&gt;&lt;/pre&gt;&lt;pre style=&quot;border-color: var(--border-color); font-family: &amp;quot;JetBrains Mono&amp;quot;, monospace; font-size: 8px;&quot;&gt;&lt;span style=&quot;background-color: initial; white-space: normal; border-color: var(--border-color); font-size: 8px;&quot;&gt;vector &lt;/span&gt;&lt;span style=&quot;background-color: initial; white-space: normal; font-size: 8px;&quot;&gt;&amp;lt;&lt;/span&gt;&lt;span style=&quot;background-color: initial; white-space: normal; border-color: var(--border-color); font-size: 8px;&quot;&gt;Passenger&lt;/span&gt;&lt;span style=&quot;background-color: initial; white-space: normal; font-size: 8px;&quot;&gt;&amp;gt;flight_passengers,&lt;/span&gt;&lt;span style=&quot;background-color: initial; white-space: normal; border-color: var(--border-color); font-size: 8px;&quot;&gt;bool &lt;/span&gt;&lt;span style=&quot;background-color: initial; white-space: normal; font-size: 8px;&quot;&gt;gateAsigned);&lt;/span&gt;&lt;/pre&gt;&lt;pre style=&quot;border-color: var(--border-color); font-family: &amp;quot;JetBrains Mono&amp;quot;, monospace; font-size: 8px;&quot;&gt;&lt;span style=&quot;border-color: var(--border-color); font-size: 8px;&quot;&gt;int &lt;/span&gt;&lt;span style=&quot;border-color: var(--border-color); font-size: 8px;&quot;&gt;getNumberFlight&lt;/span&gt;();&lt;br style=&quot;border-color: var(--border-color); font-size: 8px;&quot;&gt;&lt;span style=&quot;border-color: var(--border-color); font-size: 8px;&quot;&gt;int &lt;/span&gt;&lt;span style=&quot;border-color: var(--border-color); font-size: 8px;&quot;&gt;getSeats&lt;/span&gt;();&lt;br style=&quot;border-color: var(--border-color); font-size: 8px;&quot;&gt;&lt;span style=&quot;border-color: var(--border-color); font-size: 8px;&quot;&gt;bool &lt;/span&gt;&lt;span style=&quot;border-color: var(--border-color); font-size: 8px;&quot;&gt;getAsignado&lt;/span&gt;();&lt;br style=&quot;border-color: var(--border-color); font-size: 8px;&quot;&gt;&lt;span style=&quot;border-color: var(--border-color); font-size: 8px;&quot;&gt;void &lt;/span&gt;&lt;span style=&quot;border-color: var(--border-color); font-size: 8px;&quot;&gt;setAsignado&lt;/span&gt;(&lt;span style=&quot;border-color: var(--border-color); font-size: 8px;&quot;&gt;bool &lt;/span&gt;asignado);&lt;br style=&quot;border-color: var(--border-color); font-size: 8px;&quot;&gt;&lt;span style=&quot;border-color: var(--border-color); font-size: 8px;&quot;&gt;void &lt;/span&gt;&lt;span style=&quot;border-color: var(--border-color); font-size: 8px;&quot;&gt;setgate&lt;/span&gt;(&lt;span style=&quot;border-color: var(--border-color); font-size: 8px;&quot;&gt;bool &lt;/span&gt;gateAsigned1);&lt;br style=&quot;border-color: var(--border-color); font-size: 8px;&quot;&gt;&lt;span style=&quot;border-color: var(--border-color); font-size: 8px;&quot;&gt;bool &lt;/span&gt;&lt;span style=&quot;border-color: var(--border-color); font-size: 8px;&quot;&gt;getGateAsigned&lt;/span&gt;();&lt;br style=&quot;border-color: var(--border-color); font-size: 8px;&quot;&gt;&lt;span style=&quot;border-color: var(--border-color); font-size: 8px;&quot;&gt;string &lt;/span&gt;&lt;span style=&quot;border-color: var(--border-color); font-size: 8px;&quot;&gt;getDestiny&lt;/span&gt;();&lt;br style=&quot;border-color: var(--border-color); font-size: 8px;&quot;&gt;&lt;span style=&quot;border-color: var(--border-color); font-size: 8px;&quot;&gt;int &lt;/span&gt;&lt;span style=&quot;border-color: var(--border-color); font-size: 8px;&quot;&gt;getNumberPassengers&lt;/span&gt;();&lt;br style=&quot;border-color: var(--border-color); font-size: 8px;&quot;&gt;&lt;span style=&quot;border-color: var(--border-color); font-size: 8px;&quot;&gt;string &lt;/span&gt;&lt;span style=&quot;border-color: var(--border-color); font-size: 8px;&quot;&gt;getDepartureDate&lt;/span&gt;();&lt;br style=&quot;border-color: var(--border-color); font-size: 8px;&quot;&gt;&lt;span style=&quot;border-color: var(--border-color); font-size: 8px;&quot;&gt;string &lt;/span&gt;&lt;span style=&quot;border-color: var(--border-color); font-size: 8px;&quot;&gt;getArrivalDate&lt;/span&gt;();&lt;br style=&quot;border-color: var(--border-color); font-size: 8px;&quot;&gt;&lt;span style=&quot;border-color: var(--border-color); font-size: 8px;&quot;&gt;string &lt;/span&gt;&lt;span style=&quot;border-color: var(--border-color); font-size: 8px;&quot;&gt;getOrigen&lt;/span&gt;();&lt;br style=&quot;border-color: var(--border-color); font-size: 8px;&quot;&gt;&lt;span style=&quot;border-color: var(--border-color); font-size: 8px;&quot;&gt;void &lt;/span&gt;&lt;span style=&quot;border-color: var(--border-color); font-size: 8px;&quot;&gt;setNumberFlight&lt;/span&gt;(&lt;span style=&quot;border-color: var(--border-color); font-size: 8px;&quot;&gt;int &lt;/span&gt;numberFlight);&lt;br style=&quot;border-color: var(--border-color); font-size: 8px;&quot;&gt;&lt;span style=&quot;border-color: var(--border-color); font-size: 8px;&quot;&gt;void &lt;/span&gt;&lt;span style=&quot;border-color: var(--border-color); font-size: 8px;&quot;&gt;setDestiny&lt;/span&gt;(&lt;span style=&quot;border-color: var(--border-color); font-size: 8px;&quot;&gt;string &lt;/span&gt;Destiny);&lt;br style=&quot;border-color: var(--border-color); font-size: 8px;&quot;&gt;&lt;span style=&quot;border-color: var(--border-color); font-size: 8px;&quot;&gt;void &lt;/span&gt;&lt;span style=&quot;border-color: var(--border-color); font-size: 8px;&quot;&gt;setNumberPassengers&lt;/span&gt;(&lt;span style=&quot;border-color: var(--border-color); font-size: 8px;&quot;&gt;int &lt;/span&gt;numberPassengers);&lt;br style=&quot;border-color: var(--border-color); font-size: 8px;&quot;&gt;&lt;span style=&quot;border-color: var(--border-color); font-size: 8px;&quot;&gt;void &lt;/span&gt;&lt;span style=&quot;border-color: var(--border-color); font-size: 8px;&quot;&gt;setDepartureDate&lt;/span&gt;(&lt;span style=&quot;border-color: var(--border-color); font-size: 8px;&quot;&gt;string &lt;/span&gt;departureDate);&lt;br style=&quot;border-color: var(--border-color); font-size: 8px;&quot;&gt;&lt;span style=&quot;border-color: var(--border-color); font-size: 8px;&quot;&gt;void &lt;/span&gt;&lt;span style=&quot;border-color: var(--border-color); font-size: 8px;&quot;&gt;setArrivalDate&lt;/span&gt;(&lt;span style=&quot;border-color: var(--border-color); font-size: 8px;&quot;&gt;string &lt;/span&gt;arrivalDate);&lt;br style=&quot;border-color: var(--border-color); font-size: 8px;&quot;&gt;&lt;span style=&quot;border-color: var(--border-color); font-size: 8px;&quot;&gt;void &lt;/span&gt;&lt;span style=&quot;border-color: var(--border-color); font-size: 8px;&quot;&gt;setOrigen&lt;/span&gt;(&lt;span style=&quot;border-color: var(--border-color); font-size: 8px;&quot;&gt;string &lt;/span&gt;Origen);&lt;br style=&quot;border-color: var(--border-color); font-size: 8px;&quot;&gt;&lt;span style=&quot;border-color: var(--border-color); font-size: 8px;&quot;&gt;void &lt;/span&gt;&lt;span style=&quot;border-color: var(--border-color); font-size: 8px;&quot;&gt;addPassenger&lt;/span&gt;(&lt;span style=&quot;border-color: var(--border-color); font-size: 8px;&quot;&gt;Passenger &lt;/span&gt;passenger);&lt;br style=&quot;border-color: var(--border-color); font-size: 8px;&quot;&gt;&lt;span style=&quot;border-color: var(--border-color); font-size: 8px;&quot;&gt;vector&lt;/span&gt;&amp;lt;&lt;span style=&quot;border-color: var(--border-color); font-size: 8px;&quot;&gt;Passenger&lt;/span&gt;&amp;gt; &lt;span style=&quot;border-color: var(--border-color); font-size: 8px;&quot;&gt;getPassengers&lt;/span&gt;();&lt;br style=&quot;border-color: var(--border-color); font-size: 8px;&quot;&gt;&lt;span style=&quot;border-color: var(--border-color); font-size: 8px;&quot;&gt;void &lt;/span&gt;&lt;span style=&quot;border-color: var(--border-color); font-size: 8px;&quot;&gt;printInfo&lt;/span&gt;();&lt;br style=&quot;border-color: var(--border-color); font-size: 8px;&quot;&gt;&lt;span style=&quot;border-color: var(--border-color); font-size: 8px;&quot;&gt;void &lt;/span&gt;&lt;span style=&quot;border-color: var(--border-color); font-size: 8px;&quot;&gt;addCrewmates&lt;/span&gt;();&lt;/pre&gt;" style="text;strokeColor=none;fillColor=none;align=left;verticalAlign=top;spacingLeft=4;spacingRight=4;overflow=hidden;rotatable=0;points=[[0,0.5],[1,0.5]];portConstraint=eastwest;whiteSpace=wrap;html=1;fontColor=#000000;fontSize=8;" parent="T3-S1mTcQeIRpF71mz3H-9" vertex="1">
          <mxGeometry y="248" width="160" height="260" as="geometry" />
        </mxCell>
        <mxCell id="QWChIeaIpTq5YVUsogxR-2" value="airline" style="swimlane;fontStyle=1;align=center;verticalAlign=top;childLayout=stackLayout;horizontal=1;startSize=26;horizontalStack=0;resizeParent=1;resizeParentMax=0;resizeLast=0;collapsible=1;marginBottom=0;whiteSpace=wrap;html=1;" parent="1" vertex="1">
          <mxGeometry x="680" y="-320" width="160" height="270" as="geometry" />
        </mxCell>
        <mxCell id="QWChIeaIpTq5YVUsogxR-3" value="string name&lt;br&gt;map&amp;lt; int, aircraft &amp;gt; aircrafts&amp;nbsp;&lt;br&gt;vec&amp;lt; int&amp;gt; vec_id;" style="text;strokeColor=none;fillColor=none;align=left;verticalAlign=top;spacingLeft=4;spacingRight=4;overflow=hidden;rotatable=0;points=[[0,0.5],[1,0.5]];portConstraint=eastwest;whiteSpace=wrap;html=1;" parent="QWChIeaIpTq5YVUsogxR-2" vertex="1">
          <mxGeometry y="26" width="160" height="64" as="geometry" />
        </mxCell>
        <mxCell id="QWChIeaIpTq5YVUsogxR-4" value="" style="line;strokeWidth=1;fillColor=none;align=left;verticalAlign=middle;spacingTop=-1;spacingLeft=3;spacingRight=3;rotatable=0;labelPosition=right;points=[];portConstraint=eastwest;strokeColor=inherit;" parent="QWChIeaIpTq5YVUsogxR-2" vertex="1">
          <mxGeometry y="90" width="160" height="40" as="geometry" />
        </mxCell>
        <mxCell id="QWChIeaIpTq5YVUsogxR-5" value="&lt;p class=&quot;MsoNormal&quot; style=&quot;font-size: 9px;&quot;&gt;Airline(string name);&lt;/p&gt;&lt;p class=&quot;MsoNormal&quot; style=&quot;font-size: 9px;&quot;&gt;&lt;span style=&quot;background-color: initial;&quot;&gt;&amp;nbsp;string&amp;nbsp;&lt;/span&gt;&lt;span style=&quot;background-color: initial;&quot;&gt;getName();&lt;/span&gt;&lt;/p&gt;&lt;p class=&quot;MsoNormal&quot; style=&quot;font-size: 9px;&quot;&gt;&amp;nbsp;void&amp;nbsp; setName(string name);&lt;/p&gt;&lt;p class=&quot;MsoNormal&quot; style=&quot;font-size: 9px;&quot;&gt;&lt;span style=&quot;background-color: initial;&quot;&gt;void&amp;nbsp;&amp;nbsp;&lt;/span&gt;&lt;span style=&quot;background-color: initial;&quot;&gt;addAircraft(Aircraft aircraft);&lt;/span&gt;&lt;/p&gt;&lt;p class=&quot;MsoNormal&quot; style=&quot;font-size: 9px;&quot;&gt;void assignAircraftToFlight(vector&amp;lt;Aircraft*&amp;gt; aircrafts,vector&amp;lt;Flight*&amp;gt;&lt;br style=&quot;font-size: 9px;&quot;&gt;flights);&lt;/p&gt;" style="text;strokeColor=none;fillColor=none;align=left;verticalAlign=top;spacingLeft=4;spacingRight=4;overflow=hidden;rotatable=0;points=[[0,0.5],[1,0.5]];portConstraint=eastwest;whiteSpace=wrap;html=1;fontSize=9;" parent="QWChIeaIpTq5YVUsogxR-2" vertex="1">
          <mxGeometry y="130" width="160" height="140" as="geometry" />
        </mxCell>
        <mxCell id="rjxTFGt6AbUow81dh46X-23" style="edgeStyle=orthogonalEdgeStyle;rounded=0;orthogonalLoop=1;jettySize=auto;html=1;entryX=-0.007;entryY=0.37;entryDx=0;entryDy=0;entryPerimeter=0;endSize=11;endArrow=diamondThin;endFill=0;" parent="1" source="wyRLhXrzS5jzYZ9b7CfC-1" target="T3-S1mTcQeIRpF71mz3H-6" edge="1">
          <mxGeometry relative="1" as="geometry">
            <mxPoint x="465" y="-1200" as="targetPoint" />
          </mxGeometry>
        </mxCell>
        <mxCell id="wyRLhXrzS5jzYZ9b7CfC-1" value="aircraft" style="swimlane;fontStyle=1;align=center;verticalAlign=top;childLayout=stackLayout;horizontal=1;startSize=26;horizontalStack=0;resizeParent=1;resizeParentMax=0;resizeLast=0;collapsible=1;marginBottom=0;whiteSpace=wrap;html=1;" parent="1" vertex="1">
          <mxGeometry x="390" y="-730" width="150" height="580" as="geometry" />
        </mxCell>
        <mxCell id="wyRLhXrzS5jzYZ9b7CfC-2" value="strirng TypeAircraft&lt;br&gt;string brand&lt;br&gt;int model&lt;br&gt;int capacity&lt;br&gt;int maxium speed&lt;br&gt;int Autonomy&lt;br&gt;int Year of manufacture&lt;br&gt;int state&amp;nbsp;&lt;br&gt;vec flight&amp;nbsp;&lt;br&gt;int location&lt;br&gt;stirng full assigned&lt;br&gt;int id&lt;br&gt;stirng departure date&lt;br&gt;string arrival date&lt;br&gt;bool flying&amp;nbsp;" style="text;strokeColor=none;fillColor=none;align=left;verticalAlign=top;spacingLeft=4;spacingRight=4;overflow=hidden;rotatable=0;points=[[0,0.5],[1,0.5]];portConstraint=eastwest;whiteSpace=wrap;html=1;" parent="wyRLhXrzS5jzYZ9b7CfC-1" vertex="1">
          <mxGeometry y="26" width="150" height="274" as="geometry" />
        </mxCell>
        <mxCell id="wyRLhXrzS5jzYZ9b7CfC-3" value="" style="line;strokeWidth=1;fillColor=none;align=left;verticalAlign=middle;spacingTop=-1;spacingLeft=3;spacingRight=3;rotatable=0;labelPosition=right;points=[];portConstraint=eastwest;strokeColor=inherit;" parent="wyRLhXrzS5jzYZ9b7CfC-1" vertex="1">
          <mxGeometry y="300" width="150" height="8" as="geometry" />
        </mxCell>
        <mxCell id="wyRLhXrzS5jzYZ9b7CfC-4" value="aircraft ()&lt;br&gt;getType()&lt;br&gt;getBrand()&lt;br&gt;getModel()&lt;br&gt;getCapacity()&lt;br&gt;getMaximunSpeed()&lt;br&gt;getAutonomy()&lt;br&gt;getYearManufacture()&lt;br&gt;getState()&lt;br&gt;getLocation()&lt;br&gt;virtual landing()&lt;br&gt;virtual taking_off()&lt;br&gt;notify_location(int id, int location)&lt;br&gt;update()" style="text;strokeColor=none;fillColor=none;align=left;verticalAlign=top;spacingLeft=4;spacingRight=4;overflow=hidden;rotatable=0;points=[[0,0.5],[1,0.5]];portConstraint=eastwest;whiteSpace=wrap;html=1;" parent="wyRLhXrzS5jzYZ9b7CfC-1" vertex="1">
          <mxGeometry y="308" width="150" height="272" as="geometry" />
        </mxCell>
        <mxCell id="T3-S1mTcQeIRpF71mz3H-13" value="AirTrafficControler" style="swimlane;fontStyle=1;align=center;verticalAlign=top;childLayout=stackLayout;horizontal=1;startSize=26;horizontalStack=0;resizeParent=1;resizeParentMax=0;resizeLast=0;collapsible=1;marginBottom=0;whiteSpace=wrap;html=1;" parent="1" vertex="1">
          <mxGeometry x="750" y="-630" width="230" height="268" as="geometry" />
        </mxCell>
        <mxCell id="T3-S1mTcQeIRpF71mz3H-14" value="vec &amp;lt;aircraft&amp;gt; aircrafts&lt;br&gt;vec &amp;lt; gate &amp;gt; gates&lt;br&gt;map &amp;lt;int,int&amp;gt; airCraftLocation" style="text;strokeColor=none;fillColor=none;align=left;verticalAlign=top;spacingLeft=4;spacingRight=4;overflow=hidden;rotatable=0;points=[[0,0.5],[1,0.5]];portConstraint=eastwest;whiteSpace=wrap;html=1;" parent="T3-S1mTcQeIRpF71mz3H-13" vertex="1">
          <mxGeometry y="26" width="230" height="54" as="geometry" />
        </mxCell>
        <mxCell id="T3-S1mTcQeIRpF71mz3H-15" value="" style="line;strokeWidth=1;fillColor=none;align=left;verticalAlign=middle;spacingTop=-1;spacingLeft=3;spacingRight=3;rotatable=0;labelPosition=right;points=[];portConstraint=eastwest;strokeColor=inherit;" parent="T3-S1mTcQeIRpF71mz3H-13" vertex="1">
          <mxGeometry y="80" width="230" height="28" as="geometry" />
        </mxCell>
        <mxCell id="T3-S1mTcQeIRpF71mz3H-16" value="&lt;pre style=&quot;border-color: var(--border-color); font-family: &amp;quot;JetBrains Mono&amp;quot;, monospace; font-size: 10px;&quot;&gt;AirTrafficControler();&lt;span style=&quot;border-color: var(--border-color);&quot;&gt;&lt;br style=&quot;border-color: var(--border-color);&quot;&gt;&lt;/span&gt;&lt;span style=&quot;border-color: var(--border-color);&quot;&gt;AirTrafficControler&lt;/span&gt;(&lt;span style=&quot;border-color: var(--border-color);&quot;&gt;vector&lt;/span&gt;&amp;lt;&lt;span style=&quot;border-color: var(--border-color);&quot;&gt;Aircraft&lt;/span&gt;*&amp;gt; aircrafts, &lt;span style=&quot;border-color: var(--border-color);&quot;&gt;vector&lt;/span&gt;&amp;lt;&lt;span style=&quot;border-color: var(--border-color);&quot;&gt;Gate&lt;/span&gt;*&amp;gt; gates);&lt;span style=&quot;border-color: var(--border-color);&quot;&gt;&lt;br style=&quot;border-color: var(--border-color);&quot;&gt;&lt;/span&gt;&lt;span style=&quot;border-color: var(--border-color);&quot;&gt;vector&lt;/span&gt;&amp;lt;&lt;span style=&quot;border-color: var(--border-color);&quot;&gt;Aircraft&lt;/span&gt;*&amp;gt; &lt;span style=&quot;border-color: var(--border-color);&quot;&gt;getAircrafts&lt;/span&gt;();&lt;span style=&quot;border-color: var(--border-color);&quot;&gt;&lt;br style=&quot;border-color: var(--border-color);&quot;&gt;&lt;/span&gt;&lt;span style=&quot;border-color: var(--border-color);&quot;&gt;vector&lt;/span&gt;&amp;lt;&lt;span style=&quot;border-color: var(--border-color);&quot;&gt;Gate&lt;/span&gt;*&amp;gt; &lt;span style=&quot;border-color: var(--border-color);&quot;&gt;getGates&lt;/span&gt;();&lt;span style=&quot;border-color: var(--border-color);&quot;&gt;&lt;br style=&quot;border-color: var(--border-color);&quot;&gt;&lt;/span&gt;&lt;span style=&quot;border-color: var(--border-color);&quot;&gt;void &lt;/span&gt;&lt;span style=&quot;border-color: var(--border-color);&quot;&gt;setVecGates&lt;/span&gt;(&lt;span style=&quot;border-color: var(--border-color);&quot;&gt;vector&lt;/span&gt;&amp;lt;&lt;span style=&quot;border-color: var(--border-color);&quot;&gt;Gate&lt;/span&gt;*&amp;gt; gates);&lt;span style=&quot;border-color: var(--border-color);&quot;&gt;&lt;br style=&quot;border-color: var(--border-color);&quot;&gt;&lt;/span&gt;&lt;span style=&quot;border-color: var(--border-color);&quot;&gt;void &lt;/span&gt;&lt;span style=&quot;border-color: var(--border-color);&quot;&gt;setVecAircrafts&lt;/span&gt;(&lt;span style=&quot;border-color: var(--border-color);&quot;&gt;vector&lt;/span&gt;&amp;lt;&lt;span style=&quot;border-color: var(--border-color);&quot;&gt;Aircraft&lt;/span&gt;*&amp;gt; aircrafts);&lt;span style=&quot;border-color: var(--border-color);&quot;&gt;&lt;br style=&quot;border-color: var(--border-color);&quot;&gt;&lt;/span&gt;&lt;span style=&quot;border-color: var(--border-color);&quot;&gt;void &lt;/span&gt;&lt;span style=&quot;border-color: var(--border-color);&quot;&gt;permisson&lt;/span&gt;(&lt;span style=&quot;border-color: var(--border-color);&quot;&gt;bool &lt;/span&gt;permisson, &lt;span style=&quot;border-color: var(--border-color);&quot;&gt;int &lt;/span&gt;id);&lt;span style=&quot;border-color: var(--border-color);&quot;&gt;&lt;br style=&quot;border-color: var(--border-color);&quot;&gt;&lt;/span&gt;&lt;span style=&quot;border-color: var(--border-color);&quot;&gt;void &lt;/span&gt;&lt;span style=&quot;border-color: var(--border-color);&quot;&gt;addAircraft&lt;/span&gt;(&lt;span style=&quot;border-color: var(--border-color);&quot;&gt;Aircraft &lt;/span&gt;*aircraft);&lt;span style=&quot;border-color: var(--border-color);&quot;&gt;&lt;br style=&quot;border-color: var(--border-color);&quot;&gt;&lt;/span&gt;&lt;span style=&quot;border-color: var(--border-color);&quot;&gt;void &lt;/span&gt;&lt;span style=&quot;border-color: var(--border-color);&quot;&gt;removeAircraft&lt;/span&gt;(&lt;span style=&quot;border-color: var(--border-color);&quot;&gt;int &lt;/span&gt;id);&lt;span style=&quot;border-color: var(--border-color);&quot;&gt;&lt;br style=&quot;border-color: var(--border-color);&quot;&gt;&lt;/span&gt;&lt;span style=&quot;border-color: var(--border-color);&quot;&gt;void &lt;/span&gt;&lt;span style=&quot;border-color: var(--border-color);&quot;&gt;assingGate&lt;/span&gt;(&lt;span style=&quot;border-color: var(--border-color);&quot;&gt;Flight &lt;/span&gt;&amp;amp;flight);&lt;span style=&quot;border-color: var(--border-color);&quot;&gt;&lt;br style=&quot;border-color: var(--border-color);&quot;&gt;&lt;/span&gt;&lt;span style=&quot;border-color: var(--border-color);&quot;&gt;void &lt;/span&gt;&lt;span style=&quot;border-color: var(--border-color);&quot;&gt;notify&lt;/span&gt;();&lt;/pre&gt;" style="text;strokeColor=none;fillColor=none;align=left;verticalAlign=top;spacingLeft=4;spacingRight=4;overflow=hidden;rotatable=0;points=[[0,0.5],[1,0.5]];portConstraint=eastwest;whiteSpace=wrap;html=1;" parent="T3-S1mTcQeIRpF71mz3H-13" vertex="1">
          <mxGeometry y="108" width="230" height="160" as="geometry" />
        </mxCell>
        <mxCell id="wyRLhXrzS5jzYZ9b7CfC-5" value="Airplane" style="swimlane;fontStyle=1;align=center;verticalAlign=top;childLayout=stackLayout;horizontal=1;startSize=26;horizontalStack=0;resizeParent=1;resizeParentMax=0;resizeLast=0;collapsible=1;marginBottom=0;whiteSpace=wrap;html=1;" parent="1" vertex="1">
          <mxGeometry x="130" y="-790" width="160" height="208" as="geometry" />
        </mxCell>
        <mxCell id="wyRLhXrzS5jzYZ9b7CfC-6" value="nt max altitude&lt;br style=&quot;border-color: var(--border-color);&quot;&gt;int num engines&lt;br style=&quot;border-color: var(--border-color);&quot;&gt;int category&lt;br&gt;int seats&lt;br&gt;int avalibleSeats&amp;nbsp;&lt;br&gt;vec &amp;lt; passenger&amp;gt; passenger&lt;br&gt;landing overide()&lt;br&gt;taking off overide()" style="text;strokeColor=none;fillColor=none;align=left;verticalAlign=top;spacingLeft=4;spacingRight=4;overflow=hidden;rotatable=0;points=[[0,0.5],[1,0.5]];portConstraint=eastwest;whiteSpace=wrap;html=1;" parent="wyRLhXrzS5jzYZ9b7CfC-5" vertex="1">
          <mxGeometry y="26" width="160" height="144" as="geometry" />
        </mxCell>
        <mxCell id="wyRLhXrzS5jzYZ9b7CfC-7" value="" style="line;strokeWidth=1;fillColor=none;align=left;verticalAlign=middle;spacingTop=-1;spacingLeft=3;spacingRight=3;rotatable=0;labelPosition=right;points=[];portConstraint=eastwest;strokeColor=inherit;" parent="wyRLhXrzS5jzYZ9b7CfC-5" vertex="1">
          <mxGeometry y="170" width="160" height="8" as="geometry" />
        </mxCell>
        <mxCell id="aiJOYpLpMtuklq5Sg0DL-1" value="airplane()&lt;br&gt;~airplane()" style="text;html=1;strokeColor=none;fillColor=none;align=center;verticalAlign=middle;whiteSpace=wrap;rounded=0;" parent="wyRLhXrzS5jzYZ9b7CfC-5" vertex="1">
          <mxGeometry y="178" width="160" height="30" as="geometry" />
        </mxCell>
        <mxCell id="wyRLhXrzS5jzYZ9b7CfC-9" value="Helicopter&amp;nbsp;" style="swimlane;fontStyle=1;align=center;verticalAlign=top;childLayout=stackLayout;horizontal=1;startSize=26;horizontalStack=0;resizeParent=1;resizeParentMax=0;resizeLast=0;collapsible=1;marginBottom=0;whiteSpace=wrap;html=1;" parent="1" vertex="1">
          <mxGeometry x="130" y="-550" width="160" height="230" as="geometry" />
        </mxCell>
        <mxCell id="wyRLhXrzS5jzYZ9b7CfC-10" value="int rotors&lt;br style=&quot;border-color: var(--border-color);&quot;&gt;int elevationcapacity&lt;br&gt;string useType" style="text;strokeColor=none;fillColor=none;align=left;verticalAlign=top;spacingLeft=4;spacingRight=4;overflow=hidden;rotatable=0;points=[[0,0.5],[1,0.5]];portConstraint=eastwest;whiteSpace=wrap;html=1;" parent="wyRLhXrzS5jzYZ9b7CfC-9" vertex="1">
          <mxGeometry y="26" width="160" height="84" as="geometry" />
        </mxCell>
        <mxCell id="wyRLhXrzS5jzYZ9b7CfC-11" value="" style="line;strokeWidth=1;fillColor=none;align=left;verticalAlign=middle;spacingTop=-1;spacingLeft=3;spacingRight=3;rotatable=0;labelPosition=right;points=[];portConstraint=eastwest;strokeColor=inherit;" parent="wyRLhXrzS5jzYZ9b7CfC-9" vertex="1">
          <mxGeometry y="110" width="160" height="8" as="geometry" />
        </mxCell>
        <mxCell id="wyRLhXrzS5jzYZ9b7CfC-12" value="getRotors()&lt;br style=&quot;border-color: var(--border-color);&quot;&gt;getElevationCapacity()&lt;br&gt;getUseType()&lt;br&gt;helicopter()&lt;br&gt;~helicopter()&lt;br&gt;landing overide()&lt;br&gt;taking off overide()" style="text;strokeColor=none;fillColor=none;align=left;verticalAlign=top;spacingLeft=4;spacingRight=4;overflow=hidden;rotatable=0;points=[[0,0.5],[1,0.5]];portConstraint=eastwest;whiteSpace=wrap;html=1;" parent="wyRLhXrzS5jzYZ9b7CfC-9" vertex="1">
          <mxGeometry y="118" width="160" height="112" as="geometry" />
        </mxCell>
        <mxCell id="wyRLhXrzS5jzYZ9b7CfC-25" value="crewmate" style="swimlane;fontStyle=1;align=center;verticalAlign=top;childLayout=stackLayout;horizontal=1;startSize=26;horizontalStack=0;resizeParent=1;resizeParentMax=0;resizeLast=0;collapsible=1;marginBottom=0;whiteSpace=wrap;html=1;" parent="1" vertex="1">
          <mxGeometry x="720" y="410" width="260" height="240" as="geometry" />
        </mxCell>
        <mxCell id="wyRLhXrzS5jzYZ9b7CfC-26" value="string charge&lt;br&gt;int years_experience&lt;br&gt;int daily_hours" style="text;strokeColor=none;fillColor=none;align=left;verticalAlign=top;spacingLeft=4;spacingRight=4;overflow=hidden;rotatable=0;points=[[0,0.5],[1,0.5]];portConstraint=eastwest;whiteSpace=wrap;html=1;" parent="wyRLhXrzS5jzYZ9b7CfC-25" vertex="1">
          <mxGeometry y="26" width="260" height="74" as="geometry" />
        </mxCell>
        <mxCell id="wyRLhXrzS5jzYZ9b7CfC-27" value="" style="line;strokeWidth=1;fillColor=none;align=left;verticalAlign=middle;spacingTop=-1;spacingLeft=3;spacingRight=3;rotatable=0;labelPosition=right;points=[];portConstraint=eastwest;strokeColor=inherit;" parent="wyRLhXrzS5jzYZ9b7CfC-25" vertex="1">
          <mxGeometry y="100" width="260" height="8" as="geometry" />
        </mxCell>
        <mxCell id="wyRLhXrzS5jzYZ9b7CfC-28" value="&lt;pre style=&quot;border-color: var(--border-color); font-family: &amp;quot;JetBrains Mono&amp;quot;, monospace;&quot;&gt;Crewmate(constructor con paramtros);&lt;br style=&quot;border-color: var(--border-color);&quot;&gt;&lt;span style=&quot;border-color: var(--border-color);&quot;&gt;string &lt;/span&gt;&lt;span style=&quot;border-color: var(--border-color);&quot;&gt;getCharge&lt;/span&gt;();&lt;br style=&quot;border-color: var(--border-color);&quot;&gt;&lt;span style=&quot;border-color: var(--border-color);&quot;&gt;int &lt;/span&gt;&lt;span style=&quot;border-color: var(--border-color);&quot;&gt;getYearsExperience&lt;/span&gt;();&lt;br style=&quot;border-color: var(--border-color);&quot;&gt;&lt;span style=&quot;border-color: var(--border-color);&quot;&gt;int &lt;/span&gt;&lt;span style=&quot;border-color: var(--border-color);&quot;&gt;getDailyHours&lt;/span&gt;();&lt;br style=&quot;border-color: var(--border-color);&quot;&gt;&lt;span style=&quot;border-color: var(--border-color);&quot;&gt;void &lt;/span&gt;&lt;span style=&quot;border-color: var(--border-color);&quot;&gt;setCharge&lt;/span&gt;(&lt;span style=&quot;border-color: var(--border-color);&quot;&gt;string &lt;/span&gt;charge);&lt;br style=&quot;border-color: var(--border-color);&quot;&gt;&lt;span style=&quot;border-color: var(--border-color);&quot;&gt;void &lt;/span&gt;&lt;span style=&quot;border-color: var(--border-color);&quot;&gt;setYearsExperience&lt;/span&gt;(&lt;span style=&quot;border-color: var(--border-color);&quot;&gt;int &lt;/span&gt;years);&lt;br style=&quot;border-color: var(--border-color);&quot;&gt;&lt;span style=&quot;border-color: var(--border-color);&quot;&gt;void &lt;/span&gt;&lt;span style=&quot;border-color: var(--border-color);&quot;&gt;setDailyHours&lt;/span&gt;(&lt;span style=&quot;border-color: var(--border-color);&quot;&gt;int &lt;/span&gt;hours);&lt;/pre&gt;" style="text;strokeColor=none;fillColor=none;align=left;verticalAlign=top;spacingLeft=4;spacingRight=4;overflow=hidden;rotatable=0;points=[[0,0.5],[1,0.5]];portConstraint=eastwest;whiteSpace=wrap;html=1;" parent="wyRLhXrzS5jzYZ9b7CfC-25" vertex="1">
          <mxGeometry y="108" width="260" height="132" as="geometry" />
        </mxCell>
        <mxCell id="aiJOYpLpMtuklq5Sg0DL-5" value="" style="edgeStyle=orthogonalEdgeStyle;rounded=0;orthogonalLoop=1;jettySize=auto;html=1;endArrow=block;endFill=0;" parent="1" source="wyRLhXrzS5jzYZ9b7CfC-6" target="wyRLhXrzS5jzYZ9b7CfC-2" edge="1">
          <mxGeometry relative="1" as="geometry" />
        </mxCell>
        <mxCell id="aiJOYpLpMtuklq5Sg0DL-6" value="" style="edgeStyle=orthogonalEdgeStyle;rounded=0;orthogonalLoop=1;jettySize=auto;html=1;endArrow=block;endFill=0;entryX=0.024;entryY=0.782;entryDx=0;entryDy=0;entryPerimeter=0;" parent="1" source="wyRLhXrzS5jzYZ9b7CfC-12" target="wyRLhXrzS5jzYZ9b7CfC-2" edge="1">
          <mxGeometry relative="1" as="geometry" />
        </mxCell>
        <mxCell id="aiJOYpLpMtuklq5Sg0DL-7" style="edgeStyle=orthogonalEdgeStyle;rounded=0;orthogonalLoop=1;jettySize=auto;html=1;entryX=-0.004;entryY=0.253;entryDx=0;entryDy=0;entryPerimeter=0;endArrow=block;endFill=0;" parent="1" source="wyRLhXrzS5jzYZ9b7CfC-14" target="wyRLhXrzS5jzYZ9b7CfC-4" edge="1">
          <mxGeometry relative="1" as="geometry" />
        </mxCell>
        <mxCell id="rjxTFGt6AbUow81dh46X-19" style="edgeStyle=orthogonalEdgeStyle;rounded=0;orthogonalLoop=1;jettySize=auto;html=1;entryX=1.001;entryY=0.235;entryDx=0;entryDy=0;entryPerimeter=0;endArrow=diamondThin;endFill=0;strokeWidth=1;endSize=18;" parent="1" source="T3-S1mTcQeIRpF71mz3H-1" target="T3-S1mTcQeIRpF71mz3H-8" edge="1">
          <mxGeometry relative="1" as="geometry">
            <mxPoint x="1570" y="-1010" as="targetPoint" />
          </mxGeometry>
        </mxCell>
        <mxCell id="T3-S1mTcQeIRpF71mz3H-1" value="Gate" style="swimlane;fontStyle=1;align=center;verticalAlign=top;childLayout=stackLayout;horizontal=1;startSize=26;horizontalStack=0;resizeParent=1;resizeParentMax=0;resizeLast=0;collapsible=1;marginBottom=0;whiteSpace=wrap;html=1;" parent="1" vertex="1">
          <mxGeometry x="1340" y="-500" width="460" height="390" as="geometry" />
        </mxCell>
        <mxCell id="T3-S1mTcQeIRpF71mz3H-2" value="int id&lt;br&gt;bool avalible&lt;br&gt;string location&lt;br&gt;string boardinfHour&lt;br&gt;vec &amp;lt;Flight&amp;gt; recordFlights;&lt;br&gt;Flight flight;" style="text;strokeColor=none;fillColor=none;align=left;verticalAlign=top;spacingLeft=4;spacingRight=4;overflow=hidden;rotatable=0;points=[[0,0.5],[1,0.5]];portConstraint=eastwest;whiteSpace=wrap;html=1;" parent="T3-S1mTcQeIRpF71mz3H-1" vertex="1">
          <mxGeometry y="26" width="460" height="94" as="geometry" />
        </mxCell>
        <mxCell id="T3-S1mTcQeIRpF71mz3H-3" value="" style="line;strokeWidth=1;fillColor=none;align=left;verticalAlign=middle;spacingTop=-1;spacingLeft=3;spacingRight=3;rotatable=0;labelPosition=right;points=[];portConstraint=eastwest;strokeColor=inherit;" parent="T3-S1mTcQeIRpF71mz3H-1" vertex="1">
          <mxGeometry y="120" width="460" height="8" as="geometry" />
        </mxCell>
        <mxCell id="T3-S1mTcQeIRpF71mz3H-4" value="&lt;pre style=&quot;border-color: var(--border-color); font-family: &amp;quot;JetBrains Mono&amp;quot;, monospace;&quot;&gt;Gate();&lt;br style=&quot;border-color: var(--border-color);&quot;&gt;&lt;span style=&quot;border-color: var(--border-color);&quot;&gt;Gate&lt;/span&gt;(&lt;span style=&quot;border-color: var(--border-color);&quot;&gt;int &lt;/span&gt;id, &lt;span style=&quot;border-color: var(--border-color);&quot;&gt;bool &lt;/span&gt;availible, &lt;span style=&quot;border-color: var(--border-color);&quot;&gt;string &lt;/span&gt;location, &lt;span style=&quot;border-color: var(--border-color);&quot;&gt;string &lt;/span&gt;boardingHour);&lt;br style=&quot;border-color: var(--border-color);&quot;&gt;&lt;span style=&quot;border-color: var(--border-color);&quot;&gt;void &lt;/span&gt;&lt;span style=&quot;border-color: var(--border-color);&quot;&gt;setFlight&lt;/span&gt;(&lt;span style=&quot;border-color: var(--border-color);&quot;&gt;Flight &lt;/span&gt;flight);&lt;br style=&quot;border-color: var(--border-color);&quot;&gt;&lt;span style=&quot;border-color: var(--border-color);&quot;&gt;Flight &lt;/span&gt;&lt;span style=&quot;border-color: var(--border-color);&quot;&gt;getFlight&lt;/span&gt;();&lt;br style=&quot;border-color: var(--border-color);&quot;&gt;&lt;span style=&quot;border-color: var(--border-color);&quot;&gt;int &lt;/span&gt;&lt;span style=&quot;border-color: var(--border-color);&quot;&gt;getFlightid&lt;/span&gt;();&lt;br style=&quot;border-color: var(--border-color);&quot;&gt;&lt;span style=&quot;border-color: var(--border-color);&quot;&gt;void &lt;/span&gt;&lt;span style=&quot;border-color: var(--border-color);&quot;&gt;addRecordedFlight&lt;/span&gt;(&lt;span style=&quot;border-color: var(--border-color);&quot;&gt;Flight &lt;/span&gt;flight);&lt;br style=&quot;border-color: var(--border-color);&quot;&gt;&lt;span style=&quot;border-color: var(--border-color);&quot;&gt;vector&lt;/span&gt;&amp;lt;&lt;span style=&quot;border-color: var(--border-color);&quot;&gt;Flight&lt;/span&gt;&amp;gt; &lt;span style=&quot;border-color: var(--border-color);&quot;&gt;getRecordedFlights&lt;/span&gt;();&lt;br style=&quot;border-color: var(--border-color);&quot;&gt;&lt;span style=&quot;border-color: var(--border-color);&quot;&gt;int &lt;/span&gt;&lt;span style=&quot;border-color: var(--border-color);&quot;&gt;getId&lt;/span&gt;();&lt;br style=&quot;border-color: var(--border-color);&quot;&gt;&lt;span style=&quot;border-color: var(--border-color);&quot;&gt;bool &lt;/span&gt;&lt;span style=&quot;border-color: var(--border-color);&quot;&gt;getAvailable&lt;/span&gt;();&lt;br style=&quot;border-color: var(--border-color);&quot;&gt;&lt;span style=&quot;border-color: var(--border-color);&quot;&gt;string &lt;/span&gt;&lt;span style=&quot;border-color: var(--border-color);&quot;&gt;getLocation&lt;/span&gt;();&lt;br style=&quot;border-color: var(--border-color);&quot;&gt;&lt;span style=&quot;border-color: var(--border-color);&quot;&gt;string &lt;/span&gt;&lt;span style=&quot;border-color: var(--border-color);&quot;&gt;getBoardingHour&lt;/span&gt;();&lt;br style=&quot;border-color: var(--border-color);&quot;&gt;&lt;span style=&quot;border-color: var(--border-color);&quot;&gt;void &lt;/span&gt;&lt;span style=&quot;border-color: var(--border-color);&quot;&gt;setId&lt;/span&gt;(&lt;span style=&quot;border-color: var(--border-color);&quot;&gt;int &lt;/span&gt;id);&lt;br style=&quot;border-color: var(--border-color);&quot;&gt;&lt;span style=&quot;border-color: var(--border-color);&quot;&gt;void &lt;/span&gt;&lt;span style=&quot;border-color: var(--border-color);&quot;&gt;setAvalible&lt;/span&gt;(&lt;span style=&quot;border-color: var(--border-color);&quot;&gt;bool &lt;/span&gt;available);&lt;br style=&quot;border-color: var(--border-color);&quot;&gt;&lt;span style=&quot;border-color: var(--border-color);&quot;&gt;void &lt;/span&gt;&lt;span style=&quot;border-color: var(--border-color);&quot;&gt;setLocation&lt;/span&gt;(&lt;span style=&quot;border-color: var(--border-color);&quot;&gt;string &lt;/span&gt;location);&lt;br style=&quot;border-color: var(--border-color);&quot;&gt;&lt;span style=&quot;border-color: var(--border-color);&quot;&gt;void &lt;/span&gt;&lt;span style=&quot;border-color: var(--border-color);&quot;&gt;setBoardingHour&lt;/span&gt;(&lt;span style=&quot;border-color: var(--border-color);&quot;&gt;string &lt;/span&gt;boardingHour);&lt;br&gt;&lt;/pre&gt;" style="text;strokeColor=none;fillColor=none;align=left;verticalAlign=top;spacingLeft=4;spacingRight=4;overflow=hidden;rotatable=0;points=[[0,0.5],[1,0.5]];portConstraint=eastwest;whiteSpace=wrap;html=1;fontColor=#000000;" parent="T3-S1mTcQeIRpF71mz3H-1" vertex="1">
          <mxGeometry y="128" width="460" height="262" as="geometry" />
        </mxCell>
        <mxCell id="lWd2UzgFfCfyxYMtpxMG-1" style="edgeStyle=orthogonalEdgeStyle;rounded=0;orthogonalLoop=1;jettySize=auto;html=1;entryX=-0.002;entryY=0.591;entryDx=0;entryDy=0;entryPerimeter=0;endSize=12;endArrow=diamondThin;endFill=0;" parent="1" source="wyRLhXrzS5jzYZ9b7CfC-4" target="QWChIeaIpTq5YVUsogxR-3" edge="1">
          <mxGeometry relative="1" as="geometry" />
        </mxCell>
        <mxCell id="lWd2UzgFfCfyxYMtpxMG-13" value="AirCraftFactory" style="swimlane;fontStyle=1;align=center;verticalAlign=top;childLayout=stackLayout;horizontal=1;startSize=26;horizontalStack=0;resizeParent=1;resizeParentMax=0;resizeLast=0;collapsible=1;marginBottom=0;whiteSpace=wrap;html=1;" parent="1" vertex="1">
          <mxGeometry x="640" y="-750" width="160" height="94" as="geometry" />
        </mxCell>
        <mxCell id="lWd2UzgFfCfyxYMtpxMG-15" value="" style="line;strokeWidth=1;fillColor=none;align=left;verticalAlign=middle;spacingTop=-1;spacingLeft=3;spacingRight=3;rotatable=0;labelPosition=right;points=[];portConstraint=eastwest;strokeColor=inherit;" parent="lWd2UzgFfCfyxYMtpxMG-13" vertex="1">
          <mxGeometry y="26" width="160" height="8" as="geometry" />
        </mxCell>
        <mxCell id="lWd2UzgFfCfyxYMtpxMG-16" value="createAirplane()&lt;br&gt;createJet()&lt;br&gt;createHelicopter()" style="text;strokeColor=none;fillColor=none;align=left;verticalAlign=top;spacingLeft=4;spacingRight=4;overflow=hidden;rotatable=0;points=[[0,0.5],[1,0.5]];portConstraint=eastwest;whiteSpace=wrap;html=1;" parent="lWd2UzgFfCfyxYMtpxMG-13" vertex="1">
          <mxGeometry y="34" width="160" height="60" as="geometry" />
        </mxCell>
        <mxCell id="T3-S1mTcQeIRpF71mz3H-5" value="Airport" style="swimlane;fontStyle=1;align=center;verticalAlign=top;childLayout=stackLayout;horizontal=1;startSize=26;horizontalStack=0;resizeParent=1;resizeParentMax=0;resizeLast=0;collapsible=1;marginBottom=0;whiteSpace=wrap;html=1;" parent="1" vertex="1">
          <mxGeometry x="740" y="-1250" width="350" height="470" as="geometry" />
        </mxCell>
        <mxCell id="T3-S1mTcQeIRpF71mz3H-6" value="&lt;pre style=&quot;border-color: var(--border-color); font-family: &amp;quot;JetBrains Mono&amp;quot;, monospace;&quot;&gt;string &lt;span style=&quot;border-color: var(--border-color);&quot;&gt;name&lt;/span&gt;;&lt;br style=&quot;border-color: var(--border-color);&quot;&gt;&lt;span style=&quot;border-color: var(--border-color);&quot;&gt;vector&lt;/span&gt;&amp;lt;&lt;span style=&quot;border-color: var(--border-color);&quot;&gt;Flight&lt;/span&gt;*&amp;gt; &lt;span style=&quot;border-color: var(--border-color);&quot;&gt;flights&lt;/span&gt;;&lt;br style=&quot;border-color: var(--border-color);&quot;&gt;&lt;span style=&quot;border-color: var(--border-color);&quot;&gt;vector&lt;/span&gt;&amp;lt;&lt;span style=&quot;border-color: var(--border-color);&quot;&gt;Aircraft&lt;/span&gt;*&amp;gt; &lt;span style=&quot;border-color: var(--border-color);&quot;&gt;aircrafts&lt;/span&gt;;&lt;br style=&quot;border-color: var(--border-color);&quot;&gt;&lt;span style=&quot;border-color: var(--border-color);&quot;&gt;vector&lt;/span&gt;&amp;lt;&lt;span style=&quot;border-color: var(--border-color);&quot;&gt;Gate&lt;/span&gt;*&amp;gt; &lt;span style=&quot;border-color: var(--border-color);&quot;&gt;gates&lt;/span&gt;;&lt;br style=&quot;border-color: var(--border-color);&quot;&gt;&lt;span style=&quot;border-color: var(--border-color);&quot;&gt;vector&lt;/span&gt;&amp;lt;&lt;span style=&quot;border-color: var(--border-color);&quot;&gt;Airline&lt;/span&gt;*&amp;gt; &lt;span style=&quot;border-color: var(--border-color);&quot;&gt;airlines&lt;/span&gt;;&lt;br style=&quot;border-color: var(--border-color);&quot;&gt;&lt;span style=&quot;border-color: var(--border-color);&quot;&gt;AirTrafficControler&lt;/span&gt;* &lt;span style=&quot;border-color: var(--border-color);&quot;&gt;atc&lt;/span&gt;;&lt;/pre&gt;" style="text;strokeColor=none;fillColor=none;align=left;verticalAlign=top;spacingLeft=4;spacingRight=4;overflow=hidden;rotatable=0;points=[[0,0.5],[1,0.5]];portConstraint=eastwest;whiteSpace=wrap;html=1;fontColor=#000000;" parent="T3-S1mTcQeIRpF71mz3H-5" vertex="1">
          <mxGeometry y="26" width="350" height="124" as="geometry" />
        </mxCell>
        <mxCell id="T3-S1mTcQeIRpF71mz3H-7" value="" style="line;strokeWidth=1;fillColor=none;align=left;verticalAlign=middle;spacingTop=-1;spacingLeft=3;spacingRight=3;rotatable=0;labelPosition=right;points=[];portConstraint=eastwest;strokeColor=inherit;" parent="T3-S1mTcQeIRpF71mz3H-5" vertex="1">
          <mxGeometry y="150" width="350" height="8" as="geometry" />
        </mxCell>
        <mxCell id="T3-S1mTcQeIRpF71mz3H-8" value="&lt;pre style=&quot;border-color: var(--border-color); font-family: &amp;quot;JetBrains Mono&amp;quot;, monospace;&quot;&gt;Airport(&lt;span style=&quot;border-color: var(--border-color);&quot;&gt;string &lt;/span&gt;name);&lt;br style=&quot;border-color: var(--border-color);&quot;&gt;&lt;span style=&quot;border-color: var(--border-color);&quot;&gt;string &lt;/span&gt;&lt;span style=&quot;border-color: var(--border-color);&quot;&gt;getName&lt;/span&gt;();&lt;br style=&quot;border-color: var(--border-color);&quot;&gt;&lt;span style=&quot;border-color: var(--border-color);&quot;&gt;void &lt;/span&gt;&lt;span style=&quot;border-color: var(--border-color);&quot;&gt;setName&lt;/span&gt;(&lt;span style=&quot;border-color: var(--border-color);&quot;&gt;string &lt;/span&gt;name);&lt;br style=&quot;border-color: var(--border-color);&quot;&gt;&lt;span style=&quot;border-color: var(--border-color);&quot;&gt;vector&lt;/span&gt;&amp;lt;&lt;span style=&quot;border-color: var(--border-color);&quot;&gt;Flight&lt;/span&gt;*&amp;gt; &lt;span style=&quot;border-color: var(--border-color);&quot;&gt;getFlights&lt;/span&gt;();&lt;br style=&quot;border-color: var(--border-color);&quot;&gt;&lt;span style=&quot;border-color: var(--border-color);&quot;&gt;vector&lt;/span&gt;&amp;lt;&lt;span style=&quot;border-color: var(--border-color);&quot;&gt;Aircraft&lt;/span&gt;*&amp;gt; &lt;span style=&quot;border-color: var(--border-color);&quot;&gt;getAircrafts&lt;/span&gt;();&lt;br style=&quot;border-color: var(--border-color);&quot;&gt;&lt;span style=&quot;border-color: var(--border-color);&quot;&gt;vector&lt;/span&gt;&amp;lt;&lt;span style=&quot;border-color: var(--border-color);&quot;&gt;Gate&lt;/span&gt;*&amp;gt; &lt;span style=&quot;border-color: var(--border-color);&quot;&gt;getGates&lt;/span&gt;();&lt;br style=&quot;border-color: var(--border-color);&quot;&gt;&lt;span style=&quot;border-color: var(--border-color);&quot;&gt;vector&lt;/span&gt;&amp;lt;&lt;span style=&quot;border-color: var(--border-color);&quot;&gt;Airline&lt;/span&gt;*&amp;gt; &lt;span style=&quot;border-color: var(--border-color);&quot;&gt;getAirlines&lt;/span&gt;();&lt;br style=&quot;border-color: var(--border-color);&quot;&gt;&lt;span style=&quot;border-color: var(--border-color);&quot;&gt;AirTrafficControler&lt;/span&gt;* &lt;span style=&quot;border-color: var(--border-color);&quot;&gt;getAirTrafficControler&lt;/span&gt;();&lt;br style=&quot;border-color: var(--border-color);&quot;&gt;&lt;span style=&quot;border-color: var(--border-color);&quot;&gt;void &lt;/span&gt;&lt;span style=&quot;border-color: var(--border-color);&quot;&gt;createAircraft&lt;/span&gt;();&lt;br style=&quot;border-color: var(--border-color);&quot;&gt;&lt;span style=&quot;border-color: var(--border-color);&quot;&gt;void &lt;/span&gt;&lt;span style=&quot;border-color: var(--border-color);&quot;&gt;createAirline&lt;/span&gt;();&lt;br style=&quot;border-color: var(--border-color);&quot;&gt;&lt;span style=&quot;border-color: var(--border-color);&quot;&gt;void &lt;/span&gt;&lt;span style=&quot;border-color: var(--border-color);&quot;&gt;menu&lt;/span&gt;(&lt;span style=&quot;border-color: var(--border-color);&quot;&gt;vector&lt;/span&gt;&amp;lt;&lt;span style=&quot;border-color: var(--border-color);&quot;&gt;string&lt;/span&gt;&amp;gt; Destinations);&lt;br style=&quot;border-color: var(--border-color);&quot;&gt;&lt;span style=&quot;border-color: var(--border-color);&quot;&gt;void &lt;/span&gt;&lt;span style=&quot;border-color: var(--border-color);&quot;&gt;addAircraft&lt;/span&gt;(&lt;span style=&quot;border-color: var(--border-color);&quot;&gt;Aircraft &lt;/span&gt;*aircraft);&lt;br style=&quot;border-color: var(--border-color);&quot;&gt;&lt;span style=&quot;border-color: var(--border-color);&quot;&gt;void &lt;/span&gt;&lt;span style=&quot;border-color: var(--border-color);&quot;&gt;addFlight&lt;/span&gt;(&lt;span style=&quot;border-color: var(--border-color);&quot;&gt;Flight &lt;/span&gt;*flight);&lt;br style=&quot;border-color: var(--border-color);&quot;&gt;&lt;span style=&quot;border-color: var(--border-color);&quot;&gt;void &lt;/span&gt;&lt;span style=&quot;border-color: var(--border-color);&quot;&gt;addAirline&lt;/span&gt;(&lt;span style=&quot;border-color: var(--border-color);&quot;&gt;Airline &lt;/span&gt;*airline);&lt;br style=&quot;border-color: var(--border-color);&quot;&gt;&lt;span style=&quot;border-color: var(--border-color);&quot;&gt;void &lt;/span&gt;&lt;span style=&quot;border-color: var(--border-color);&quot;&gt;setVecGates&lt;/span&gt;(&lt;span style=&quot;border-color: var(--border-color);&quot;&gt;vector&lt;/span&gt;&amp;lt;&lt;span style=&quot;border-color: var(--border-color);&quot;&gt;Gate&lt;/span&gt;*&amp;gt; gates);&lt;br style=&quot;border-color: var(--border-color);&quot;&gt;&lt;span style=&quot;border-color: var(--border-color);&quot;&gt;void &lt;/span&gt;&lt;span style=&quot;border-color: var(--border-color);&quot;&gt;setVecAircrafts&lt;/span&gt;(&lt;span style=&quot;border-color: var(--border-color);&quot;&gt;vector&lt;/span&gt;&amp;lt;&lt;span style=&quot;border-color: var(--border-color);&quot;&gt;Aircraft&lt;/span&gt;*&amp;gt; aircrafts);&lt;br style=&quot;border-color: var(--border-color);&quot;&gt;&lt;span style=&quot;border-color: var(--border-color);&quot;&gt;void &lt;/span&gt;&lt;span style=&quot;border-color: var(--border-color);&quot;&gt;setVecFlights&lt;/span&gt;(&lt;span style=&quot;border-color: var(--border-color);&quot;&gt;vector&lt;/span&gt;&amp;lt;&lt;span style=&quot;border-color: var(--border-color);&quot;&gt;Flight&lt;/span&gt;*&amp;gt; flights);&lt;br style=&quot;border-color: var(--border-color);&quot;&gt;&lt;span style=&quot;border-color: var(--border-color);&quot;&gt;void &lt;/span&gt;&lt;span style=&quot;border-color: var(--border-color);&quot;&gt;createGate&lt;/span&gt;();&lt;br style=&quot;border-color: var(--border-color);&quot;&gt;&lt;span style=&quot;border-color: var(--border-color);&quot;&gt;void &lt;/span&gt;&lt;span style=&quot;border-color: var(--border-color);&quot;&gt;createAirTrafficControler&lt;/span&gt;();&lt;/pre&gt;" style="text;strokeColor=none;fillColor=none;align=left;verticalAlign=top;spacingLeft=4;spacingRight=4;overflow=hidden;rotatable=0;points=[[0,0.5],[1,0.5]];portConstraint=eastwest;whiteSpace=wrap;html=1;fontColor=#000000;" parent="T3-S1mTcQeIRpF71mz3H-5" vertex="1">
          <mxGeometry y="158" width="350" height="312" as="geometry" />
        </mxCell>
        <mxCell id="rjxTFGt6AbUow81dh46X-18" style="edgeStyle=orthogonalEdgeStyle;rounded=0;orthogonalLoop=1;jettySize=auto;html=1;entryX=1.001;entryY=0.367;entryDx=0;entryDy=0;entryPerimeter=0;" parent="1" source="wyRLhXrzS5jzYZ9b7CfC-25" target="wyRLhXrzS5jzYZ9b7CfC-22" edge="1">
          <mxGeometry relative="1" as="geometry" />
        </mxCell>
        <mxCell id="rjxTFGt6AbUow81dh46X-20" style="edgeStyle=orthogonalEdgeStyle;rounded=0;orthogonalLoop=1;jettySize=auto;html=1;entryX=-0.002;entryY=-0.076;entryDx=0;entryDy=0;entryPerimeter=0;endSize=16;endArrow=diamondThin;endFill=0;" parent="1" source="wyRLhXrzS5jzYZ9b7CfC-2" target="lWd2UzgFfCfyxYMtpxMG-16" edge="1">
          <mxGeometry relative="1" as="geometry">
            <mxPoint x="650" y="-720" as="targetPoint" />
            <Array as="points">
              <mxPoint x="590" y="-680" />
              <mxPoint x="590" y="-721" />
            </Array>
          </mxGeometry>
        </mxCell>
        <mxCell id="rjxTFGt6AbUow81dh46X-25" style="edgeStyle=orthogonalEdgeStyle;rounded=0;orthogonalLoop=1;jettySize=auto;html=1;entryX=0.625;entryY=1.012;entryDx=0;entryDy=0;entryPerimeter=0;endSize=12;endArrow=diamondThin;endFill=0;" parent="1" source="T3-S1mTcQeIRpF71mz3H-10" target="T3-S1mTcQeIRpF71mz3H-4" edge="1">
          <mxGeometry relative="1" as="geometry">
            <mxPoint x="1580" y="43" as="targetPoint" />
            <Array as="points">
              <mxPoint x="1628" y="43" />
            </Array>
          </mxGeometry>
        </mxCell>
        <mxCell id="rjxTFGt6AbUow81dh46X-28" style="edgeStyle=orthogonalEdgeStyle;rounded=0;orthogonalLoop=1;jettySize=auto;html=1;entryX=0;entryY=0.5;entryDx=0;entryDy=0;endSize=10;endArrow=diamond;endFill=0;" parent="1" source="wyRLhXrzS5jzYZ9b7CfC-2" target="T3-S1mTcQeIRpF71mz3H-14" edge="1">
          <mxGeometry relative="1" as="geometry" />
        </mxCell>
        <mxCell id="rjxTFGt6AbUow81dh46X-29" style="edgeStyle=orthogonalEdgeStyle;rounded=0;orthogonalLoop=1;jettySize=auto;html=1;entryX=1;entryY=0.5;entryDx=0;entryDy=0;endSize=11;endArrow=diamond;endFill=0;" parent="1" source="T3-S1mTcQeIRpF71mz3H-2" target="T3-S1mTcQeIRpF71mz3H-14" edge="1">
          <mxGeometry relative="1" as="geometry" />
        </mxCell>
        <mxCell id="rjxTFGt6AbUow81dh46X-30" style="edgeStyle=orthogonalEdgeStyle;rounded=0;orthogonalLoop=1;jettySize=auto;html=1;entryX=-0.012;entryY=0.819;entryDx=0;entryDy=0;entryPerimeter=0;endSize=11;endArrow=diamondThin;endFill=0;" parent="1" source="wyRLhXrzS5jzYZ9b7CfC-22" target="T3-S1mTcQeIRpF71mz3H-10" edge="1">
          <mxGeometry relative="1" as="geometry" />
        </mxCell>
        <mxCell id="rjxTFGt6AbUow81dh46X-31" style="edgeStyle=orthogonalEdgeStyle;rounded=0;orthogonalLoop=1;jettySize=auto;html=1;entryX=1;entryY=0.5;entryDx=0;entryDy=0;endSize=10;endArrow=block;endFill=0;dashed=1;" parent="1" source="T3-S1mTcQeIRpF71mz3H-10" target="QWChIeaIpTq5YVUsogxR-3" edge="1">
          <mxGeometry relative="1" as="geometry" />
        </mxCell>
        <mxCell id="rjxTFGt6AbUow81dh46X-32" style="edgeStyle=orthogonalEdgeStyle;rounded=0;orthogonalLoop=1;jettySize=auto;html=1;entryX=0.629;entryY=1;entryDx=0;entryDy=0;entryPerimeter=0;endSize=11;endArrow=block;endFill=0;dashed=1;" parent="1" source="lWd2UzgFfCfyxYMtpxMG-16" target="T3-S1mTcQeIRpF71mz3H-8" edge="1">
          <mxGeometry relative="1" as="geometry">
            <mxPoint x="960" y="-770" as="targetPoint" />
          </mxGeometry>
        </mxCell>
      </root>
    </mxGraphModel>
  </diagram>
</mxfile>
